<svg xmlns="http://www.w3.org/2000/svg" height="24" viewBox="0 96 960 960" width="24" opacity='0.9' fill='#F1FAEE'><path d="m376 742.153 104-104 104 104L626.153 700l-104-104 104-104L584 449.847l-104 104-104-104L333.847 492l104 104-104 104L376 742.153Zm-83.691 173.846q-30.308 0-51.308-21t-21-51.308V336h-40v-59.999H360v-35.384h240v35.384h179.999V336h-40v507.691q0 30.308-21 51.308t-51.308 21H292.309ZM680 336H280v507.691q0 4.616 3.846 8.463 3.847 3.846 8.463 3.846h375.382q4.616 0 8.463-3.846 3.846-3.847 3.846-8.463V336Zm-400 0v520-520Z"/></svg>